# xmcd
#
# Track frame offsets:
#	150
#	14326
#	30850
#	44609
#	56610
#	72135
#	87061
#	102792
#	112693
#	124410
#	137536
#	154787
#	165888
#	182839
#
# Disc length: 2623 seconds
#
# Revision: 1
# Processed by: cddbd v1.5.2PL0 Copyright (c) Steve Scherf et al.
# Submitted via: audiograbber 1.83.01
#
DISCID=a40a3d0e
DTITLE=2ND - Route 96 Country Music
DYEAR=1900
DGENRE=Country
TTITLE0=Z. Van Arscale. M. Clark - I`ll Find It Where i Can
TTITLE1=Frank Dycus - Gonna Get A Life
TTITLE2=Clint Black, Hayden Nicolas - Better Man
TTITLE3=J.C.Fogerty- Jondara Niclas - Have your ever seen Teh Rain
TTITLE4=Norbert Tigs, John Lomax - Goodnight, Irene
TTITLE5=Max D.Bornes, Robert John Jones - Thake got for the Radio
TTITLE6=Dwight Yoakam - These Arms
TTITLE7=Roderick Scheller - Lightwheel Stomp
TTITLE8=Tom T.Hall - Little Bitty
TTITLE9=M.Tallis - Ruby, Don´t Take your Love to Town
TTITLE10=Alan, Jackson - Living on Love
TTITLE11=Richard Fugun, Rob Floyer - Sold
TTITLE12=Chris Knight, Sam Tale, Annie Tale - Highway Junkie
TTITLE13=Charles Calhoun - Shake, Rattle and Roll
EXTD=
EXTT0=
EXTT1=
EXTT2=
EXTT3=
EXTT4=
EXTT5=
EXTT6=
EXTT7=
EXTT8=
EXTT9=
EXTT10=
EXTT11=
EXTT12=
EXTT13=
PLAYORDER=
